HIERARCHY
ROOT Pelvis
{
	OFFSET 0.000000 0.000000 0.000000
	CHANNELS 6 Xposition Yposition Zposition Zrotation Yrotation Xrotation 
	JOINT Left_hip
	{
		OFFSET 0.070241 -0.085575 -0.010474
		CHANNELS 3 Zrotation Yrotation Xrotation
		JOINT Left_knee
		{
			OFFSET 0.032125 -0.356873 -0.000555
			CHANNELS 3 Zrotation Yrotation Xrotation
			JOINT Left_ankle
			{
				OFFSET -0.010961 -0.370212 -0.042278
				CHANNELS 3 Zrotation Yrotation Xrotation
				JOINT Left_foot
				{
					OFFSET 0.023322 -0.052281 0.110104
					CHANNELS 3 Zrotation Yrotation Xrotation
					End Site
					{
						OFFSET 0.000000 0.000000 0.000000
					}
				}
			}
		}
	}
	JOINT Right_hip
	{
		OFFSET -0.068518 -0.084320 -0.007402
		CHANNELS 3 Zrotation Yrotation Xrotation
		JOINT Right_knee
		{
			OFFSET -0.037345 -0.364815 -0.003619
			CHANNELS 3 Zrotation Yrotation Xrotation
			JOINT Right_ankle
			{
				OFFSET 0.013394 -0.370006 -0.039954
				CHANNELS 3 Zrotation Yrotation Xrotation
				JOINT Right_foot
				{
					OFFSET -0.019600 -0.045455 0.113223
					CHANNELS 3 Zrotation Yrotation Xrotation
					End Site
					{
						OFFSET 0.000000 0.000000 0.000000
					}
				}
			}
		}
	}
	JOINT Spine1
	{
		OFFSET -0.002404 0.098129 -0.018169
		CHANNELS 3 Zrotation Yrotation Xrotation
		JOINT Spine2
		{
			OFFSET 0.003989 0.127209 -0.001742
			CHANNELS 3 Zrotation Yrotation Xrotation
			JOINT Spine3
			{
				OFFSET 0.001758 0.046641 0.023475
				CHANNELS 3 Zrotation Yrotation Xrotation
				JOINT Neck
				{
					OFFSET -0.003759 0.194901 -0.039982
					CHANNELS 3 Zrotation Yrotation Xrotation
					JOINT Head
					{
						OFFSET 0.003999 0.063756 0.047665
						CHANNELS 3 Zrotation Yrotation Xrotation
						End Site
						{
							OFFSET 0.000000 0.000000 0.000000
						}
					}
				}
				JOINT Left_collar
				{
					OFFSET 0.071816 0.109048 -0.028973
					CHANNELS 3 Zrotation Yrotation Xrotation
					JOINT Left_shoulder
					{
						OFFSET 0.084027 0.032269 -0.006525
						CHANNELS 3 Zrotation Yrotation Xrotation
						JOINT Left_elbow
						{
							OFFSET 0.243854 -0.013992 -0.025905
							CHANNELS 3 Zrotation Yrotation Xrotation
							JOINT Left_wrist
							{
								OFFSET 0.232156 0.008196 -0.000339
								CHANNELS 3 Zrotation Yrotation Xrotation
								JOINT Left_palm
								{
									OFFSET 0.075377 -0.009461 -0.012494
									CHANNELS 3 Zrotation Yrotation Xrotation
									End Site
									{
										OFFSET 0.000000 0.000000 0.000000
									}
								}
							}
						}
					}
				}
				JOINT Right_collar
				{
					OFFSET -0.073768 0.107001 -0.033755
					CHANNELS 3 Zrotation Yrotation Xrotation
					JOINT Right_shoulder
					{
						OFFSET -0.086837 0.032868 -0.009431
						CHANNELS 3 Zrotation Yrotation Xrotation
						JOINT Right_elbow
						{
							OFFSET -0.236446 -0.012544 -0.018747
							CHANNELS 3 Zrotation Yrotation Xrotation
							JOINT Right_wrist
							{
								OFFSET -0.236110 0.006124 -0.004327
								CHANNELS 3 Zrotation Yrotation Xrotation
								JOINT Right_palm
								{
									OFFSET -0.074800 -0.006875 -0.009610
									CHANNELS 3 Zrotation Yrotation Xrotation
									End Site
									{
										OFFSET 0.000000 0.000000 0.000000
									}
								}
							}
						}
					}
				}
			}
		}
	}
}
MOTION
Frames: 9
Frame Time: 0.100000
0.000000 0.000000 0.000000 177.850175 20.572432 -7.096756 -1.101551 5.474173 -0.940384 0.678431 -5.362031 -6.193859 -4.521549 25.786543 -2.420878 10.626983 -5.561378 0.610116 2.543288 -5.824142 1.431580 -0.982182 4.515922 -4.791582 -2.105408 -24.705124 -2.555362 6.100425 7.592774 7.322714 -0.716126 2.767209 -1.329208 0.409710 -2.822569 -4.710492 -0.087962 1.793848 -1.613181 -3.084909 -4.759578 5.200588 4.323134 -2.178535 0.737991 -4.362586 4.858162 -10.117687 8.563474 -15.510219 -17.222334 1.732838 11.253907 -9.896847 -3.863703 -3.499233 34.667091 -1.122360 -7.409263 -3.022574 7.032683 -1.045879 -7.864966 -5.293413 8.611668 -20.863445 -7.180916 -15.161019 -14.141342 0.851323 0.590790 28.507640 6.903235 8.682078 -3.322146 
-0.000336 0.000162 -0.000931 177.818644 20.548408 -6.960230 -1.133115 5.402383 -1.177294 0.686048 -5.288082 -6.163936 -4.442862 25.765607 -2.405990 10.502073 -5.527794 0.715490 2.554390 -5.806534 1.185135 -0.959174 4.487043 -4.755637 -2.177138 -24.675228 -2.527841 6.341761 7.539380 7.551265 -0.714498 2.774998 -1.409416 0.408285 -2.789125 -4.853205 -0.170241 1.820194 -1.594642 -3.070435 -4.823567 5.833616 4.163683 -2.060404 1.767242 -4.554330 5.274187 -10.279747 8.498377 -15.523149 -16.955999 1.622873 11.326942 -9.767690 -3.623465 -3.630921 34.658839 -1.023491 -7.385304 -2.814298 7.203522 -1.448301 -8.033320 -5.699755 8.722543 -20.916763 -7.214421 -15.285972 -14.182349 0.454243 0.742078 28.958949 6.881878 8.668922 -3.338224 
-0.000532 0.000244 -0.001651 177.801311 20.511835 -6.991208 -1.144154 5.365757 -1.225865 0.672536 -5.303720 -6.110706 -4.369916 25.837865 -2.410495 10.481642 -5.603992 0.781826 2.547733 -5.810541 1.126312 -0.948243 4.521531 -4.690006 -2.152063 -24.722008 -2.557350 6.418063 7.570596 7.742839 -0.753025 2.772574 -1.521362 0.414030 -2.805645 -4.919251 -0.276416 1.828905 -1.477892 -3.136127 -4.894450 6.807408 4.009314 -1.784086 3.253100 -4.607370 5.790119 -10.326201 8.602312 -15.625654 -17.004099 1.593705 11.605138 -9.690235 -3.521678 -3.465727 34.629675 -0.973093 -7.395948 -2.637926 7.305705 -1.961305 -8.177029 -6.075157 8.938234 -21.049467 -7.233827 -15.276359 -14.282135 0.322954 0.695503 29.190843 6.886691 8.668395 -3.314583 
-0.000700 0.000341 -0.002166 177.779008 20.501190 -7.134021 -1.130714 5.372756 -1.158044 0.649342 -5.330347 -6.037490 -4.307214 25.881567 -2.443165 10.426291 -5.664511 0.818056 2.538205 -5.857750 1.174349 -0.937865 4.540388 -4.586856 -2.185402 -24.743186 -2.607604 6.679163 7.618107 8.049483 -0.820883 2.798906 -1.755573 0.442928 -2.816101 -4.790443 -0.397445 1.847287 -1.378253 -3.194176 -4.973889 8.063060 3.806377 -1.561581 5.010848 -4.776120 6.213837 -10.314589 8.787533 -15.834724 -17.090519 1.582822 11.421890 -9.720196 -3.071394 -3.561213 34.438947 -1.058341 -7.430469 -2.481935 7.534988 -2.409590 -8.234467 -6.444269 9.103267 -21.175020 -7.318911 -15.278584 -14.442136 -0.194929 0.815671 29.461254 6.977309 8.693935 -3.272202 
-0.000838 0.000409 -0.002760 177.779542 20.482067 -7.339973 -1.121852 5.374293 -0.997338 0.615765 -5.334680 -6.000750 -4.277785 25.893456 -2.465335 10.471837 -5.664550 0.877767 2.496193 -5.863422 1.366334 -0.936277 4.512853 -4.622587 -2.179226 -24.712835 -2.602298 6.738569 7.593491 8.271382 -0.912184 2.839781 -1.990099 0.465980 -2.847633 -4.556052 -0.513329 1.852655 -1.266265 -3.305673 -5.060955 9.466607 3.679966 -1.435449 6.357574 -4.972393 6.592902 -10.341704 8.711924 -16.218251 -17.135012 1.557230 11.461729 -9.924992 -2.964933 -3.555463 34.171449 -1.196830 -7.403326 -2.410626 7.780312 -2.782645 -8.400003 -6.377789 9.415452 -21.184588 -7.308979 -15.319338 -14.992915 -0.257435 0.813074 29.216907 7.087517 8.662983 -3.191443 
-0.000699 0.000639 -0.004037 177.757338 20.414785 -7.533122 -1.100234 5.362289 -0.932752 0.601090 -5.257950 -5.896934 -4.226098 25.844340 -2.493430 10.468259 -5.574081 0.944117 2.482594 -5.848018 1.396271 -0.897562 4.408193 -4.472341 -2.200092 -24.567355 -2.639926 6.807929 7.510288 8.474142 -0.944676 2.857502 -2.045541 0.499385 -2.847378 -4.327946 -0.587507 1.845199 -1.166101 -3.355382 -5.124640 10.560923 3.553447 -1.402903 7.194174 -5.355010 6.954927 -10.367054 8.138310 -16.409473 -17.029769 1.697540 11.629533 -10.643595 -2.689282 -3.616438 33.657764 -1.362994 -7.344469 -2.301096 8.172960 -3.047052 -8.504844 -5.930115 9.663403 -21.047942 -7.343985 -15.382265 -15.612211 -0.427248 0.891903 28.883863 7.190604 8.587917 -3.066449 
-0.000603 0.001158 -0.005836 177.802746 20.237804 -7.655106 -1.157007 5.276254 -0.896167 0.633968 -4.954972 -5.879764 -4.124967 25.648649 -2.475636 10.424644 -5.341128 1.002200 2.419761 -5.696250 1.356642 -0.871307 4.127407 -4.373090 -2.315220 -24.222275 -2.648507 6.892601 7.447982 8.735980 -0.872237 2.861718 -1.916820 0.456070 -2.777733 -4.101042 -0.680651 1.806533 -1.031786 -3.259285 -5.070080 11.087942 3.333118 -1.389438 7.498613 -6.413474 7.605570 -10.423444 6.064660 -16.444183 -16.782656 2.701251 11.044256 -14.544612 -0.987536 -4.393900 30.516354 -1.903864 -7.094836 -1.699408 8.973794 -3.457214 -8.463291 -3.968655 9.826849 -20.328578 -7.839602 -14.456431 -17.536951 -1.770845 1.512951 26.608061 7.406438 8.382315 -2.456152 
-0.000451 0.002706 -0.008914 177.998759 19.765725 -7.772438 -1.319930 5.241790 -0.933360 0.607626 -4.082585 -5.719806 -3.810498 24.958677 -2.453156 9.998105 -4.789000 1.105956 2.191753 -5.479061 1.111060 -0.771502 3.517372 -3.963023 -2.914962 -23.194284 -2.733267 7.906262 7.107559 9.264243 -0.511825 2.842655 -1.573551 0.273123 -2.508383 -2.723486 -0.945182 1.830897 -1.472667 -2.691614 -4.815779 10.118249 2.414070 -1.427684 7.302700 -9.422795 7.928564 -9.747926 0.881739 -15.667270 -14.426735 5.282424 9.170494 -18.637657 2.821453 -5.843307 26.581037 -2.662299 -6.939067 -1.155691 11.309136 -3.219164 -7.121845 0.142973 9.688790 -18.118608 -8.958447 -12.646704 -18.944919 -4.776338 2.833029 24.078044 7.764154 8.238022 -1.718969 
-0.000872 0.005392 -0.012433 178.382160 19.124680 -7.706946 -1.665205 5.007700 -1.144536 0.562322 -2.475145 -5.554172 -3.292638 23.644982 -2.262604 9.647567 -3.688421 1.003501 1.782658 -5.022782 0.775415 -0.726978 2.402241 -3.745736 -3.579263 -21.441997 -2.857237 8.744484 6.209653 9.693160 -0.125288 2.848423 -1.430215 0.149346 -2.061024 -0.410432 -1.542828 1.872320 -2.581798 -1.529893 -4.856467 7.745877 0.879757 -1.641232 7.589917 -14.342885 8.987472 -8.912360 -9.728167 -15.823462 -7.894651 8.906867 4.952107 -19.030217 9.011547 -7.580885 22.227700 -3.350788 -6.600131 -0.636966 15.549794 -3.527398 -5.730128 8.134680 10.810143 -13.218066 -10.542530 -8.520319 -20.526092 -10.347753 5.027343 19.622282 8.377594 8.081003 -0.663847 
